<?xml version="1.0" encoding="UTF-8"?>
<svg width="1200pt" height="1200pt" version="1.1" viewBox="0 0 1200 1200" xmlns="http://www.w3.org/2000/svg">
 <g>
  <path d="m1200 600c0 214.36-114.36 412.44-300 519.62-185.64 107.18-414.36 107.18-600 0-185.64-107.18-300-305.26-300-519.62s114.36-412.44 300-519.62c185.64-107.18 414.36-107.18 600 0 185.64 107.18 300 305.26 300 519.62" fill="#ffcefa"/>
  <path d="m497.22 945.36c19.652-163.99 20.406-338.56 129.98-473.83 8.3125-10.578-5.2891-24.938-15.113-15.113-122.43 129.23-145.1 317.4-139.05 488.19 1.5117 16.625 22.672 15.867 24.18 0.75391z"/>
  <path d="m572.8 689.18c46.098 22.672 76.328-21.16 95.977-57.434 30.984-56.68 55.922-115.62 74.816-176.84 14.359-45.344 40.055-111.85 24.184-160.21-13.602-41.562-58.191-53.656-95.977-36.273-23.426 10.578-40.809 30.984-56.68 49.879-24.184 28.719-48.367 58.191-71.793 87.664-37.031 45.344-73.305 91.441-95.219 145.85-36.273 90.688-11.336 214.62 89.93 249.39 9.0703 3.0234 13.602-11.336 3.7773-15.113-97.488-34.762-99-142.83-65.746-225.2 33.25-78.602 97.484-144.35 151.14-210.09 11.336-13.602 21.914-28.719 35.52-40.055 25.695-23.426 75.57-30.984 80.105 17.383 3.0234 37.785-12.09 80.863-21.914 116.38-12.09 44.586-27.961 88.418-46.855 129.98-15.113 33.25-45.344 120.91-92.195 103.53-12.094-3.7773-21.164 15.871-9.0703 21.16z"/>
  <path d="m635.52 595.47c22.672 0.75391 42.32-10.578 52.145-30.984 5.2891-11.336-8.3125-23.426-17.383-13.602-9.8242 9.8242-24.184 17.383-37.785 19.648-15.113 2.2656-11.336 24.938 3.0234 24.938z"/>
  <path d="m659.7 525.94c24.938-7.5586 43.074-21.914 57.434-43.832 6.8008-9.8242-8.3125-21.16-16.625-12.848-13.602 14.359-31.738 26.449-49.879 34.008-12.844 5.2891-3.7773 26.449 9.0703 22.672z"/>
  <path d="m681.62 416.36c40.055-8.3125 67.258-33.25 77.84-73.305 3.0234-12.09-13.602-18.895-19.648-8.3125-15.113 24.184-41.562 47.609-68.016 58.945-13.602 6.0469-3.7773 24.938 9.8242 22.672z"/>
  <path d="m507.05 568.26c3.0234-32.496 5.2891-64.992 10.578-97.488 2.2656-12.848-15.871-18.895-20.402-5.2891-10.578 33.25-16.625 68.016-13.602 103.53 0.75781 14.359 22.672 14.359 23.426-0.75391z"/>
  <path d="m570.53 467.75c11.336-28.719 22.672-57.434 34.762-85.395 5.2891-12.848-11.336-23.426-18.895-11.336-18.137 28.719-30.984 57.434-40.055 89.93-4.5273 16.625 18.898 21.918 24.188 6.8008z"/>
  <path d="m668.77 351.37c11.336-24.184 26.449-47.609 44.586-67.258 9.0703-9.0703-3.0234-25.695-14.359-18.137-27.207 18.137-46.098 43.832-52.145 76.328-1.5117 12.09 15.871 21.914 21.918 9.0664z"/>
 </g>
</svg>
